# xmcd
#
# Track frame offsets:
#	150
#	18011
#	32599
#	44998
#	60199
#	75498
#	90295
#	105327
#	117824
#	134208
#	145620
#	159079
#	172413
#	185927
#	198481
#	209234
#	221825
#	233520
#	246351
#	257162
#	266647
#	277313
#	293088
#	303804
#
# Disc length: 4194 seconds
#
# Revision: 1
# Processed by: cddbd v1.5.2PL0 Copyright (c) Steve Scherf et al.
# Submitted via: audiograbber 1.83.01
#
DISCID=65106018
DTITLE=ALÍPIO MARTINS - GRANDES SUCESSOS
DYEAR=1900
DGENRE=
TTITLE0=ONDE ANDARÁ VOCÊ
TTITLE1=GAROTA
TTITLE2=VEM ME AMAR
TTITLE3=PRA MIM VOCÊ MORREU
TTITLE4=OH! DARCY
TTITLE5=VOCÊ É MINHA PAIXÃO
TTITLE6=VOCÊ É QUE SABE
TTITLE7=SÓ VOCÊ
TTITLE8=CARTA DE AMOR
TTITLE9=LOUCO DE AMOR
TTITLE10=ESSA GAROTA É MINHA
TTITLE11=SEPARAÇÃO
TTITLE12=NÃO CHORA
TTITLE13=RAIOS DE SOL
TTITLE14=QUERO GOZAR (A VIDA COM VOCÊ)
TTITLE15=MENTIRAS DE AMOR
TTITLE16=QUERO TE AMAR
TTITLE17=DESCONFIANÇA
TTITLE18=GOSTO DE VOCÊ
TTITLE19=GAROTINHA
TTITLE20=A FIM DE VOCÊ
TTITLE21=TÁXI, TÁXI
TTITLE22=VOCÊ VAI PENAR
TTITLE23=COISINHA LOUCA
EXTD=
EXTT0=
EXTT1=
EXTT2=
EXTT3=
EXTT4=
EXTT5=
EXTT6=
EXTT7=
EXTT8=
EXTT9=
EXTT10=
EXTT11=
EXTT12=
EXTT13=
EXTT14=
EXTT15=
EXTT16=
EXTT17=
EXTT18=
EXTT19=
EXTT20=
EXTT21=
EXTT22=
EXTT23=
PLAYORDER=
